<?xml version="1.0" encoding="UTF-8" standalone="no"?>
<!DOCTYPE svg PUBLIC "-//W3C//DTD SVG 1.1//EN"
 "http://www.w3.org/Graphics/SVG/1.1/DTD/svg11.dtd">
<!-- Generated by graphviz version 2.38.0 (20140413.2041)
 -->
<!-- Title: G Pages: 1 -->
<svg width="243pt" height="204pt"
 viewBox="0.00 0.00 243.00 204.00" xmlns="http://www.w3.org/2000/svg" xmlns:xlink="http://www.w3.org/1999/xlink">
<g id="graph0" class="graph" transform="scale(1 1) rotate(0) translate(4 200)">
<title>G</title>
<polygon fill="white" stroke="none" points="-4,4 -4,-200 239,-200 239,4 -4,4"/>
<g id="clust1" class="cluster"><title>cluster_Global</title>
<path fill="none" stroke="gray" d="M20,-8C20,-8 215,-8 215,-8 221,-8 227,-14 227,-20 227,-20 227,-176 227,-176 227,-182 221,-188 215,-188 215,-188 20,-188 20,-188 14,-188 8,-182 8,-176 8,-176 8,-20 8,-20 8,-14 14,-8 20,-8"/>
<text text-anchor="middle" x="117.5" y="-175.2" font-family="Times New Roman,serif" font-size="11.00" fill="gray">Global</text>
</g>
<!-- \\PdoGsb -->
<g id="node1" class="node"><title>\\PdoGsb</title>
<polygon fill="none" stroke="black" points="209,-160 152,-160 152,-124 209,-124 209,-160"/>
<text text-anchor="middle" x="180.5" y="-139.2" font-family="Courier,monospace" font-size="11.00">PdoGsb</text>
</g>
<!-- \\FPDF -->
<g id="node2" class="node"><title>\\FPDF</title>
<polygon fill="none" stroke="black" points="70,-52 16,-52 16,-16 70,-16 70,-52"/>
<text text-anchor="middle" x="43" y="-31.2" font-family="Courier,monospace" font-size="11.00">FPDF</text>
</g>
<!-- \\TTFParser -->
<g id="node3" class="node"><title>\\TTFParser</title>
<polygon fill="none" stroke="black" points="219,-106 142,-106 142,-70 219,-70 219,-106"/>
<text text-anchor="middle" x="180.5" y="-85.2" font-family="Courier,monospace" font-size="11.00">TTFParser</text>
</g>
<!-- \\PDF -->
<g id="node4" class="node"><title>\\PDF</title>
<polygon fill="none" stroke="black" points="207.5,-52 153.5,-52 153.5,-16 207.5,-16 207.5,-52"/>
<text text-anchor="middle" x="180.5" y="-31.2" font-family="Courier,monospace" font-size="11.00">PDF</text>
</g>
<!-- \\PDF&#45;&gt;\\FPDF -->
<g id="edge1" class="edge"><title>\\PDF&#45;&gt;\\FPDF</title>
<path fill="none" stroke="black" d="M153.374,-34C132.567,-34 103.208,-34 80.1453,-34"/>
<polygon fill="none" stroke="black" points="80.0456,-30.5001 70.0456,-34 80.0455,-37.5001 80.0456,-30.5001"/>
</g>
</g>
</svg>
